<svg width="217" height="204" viewBox="0 0 217 204" fill="none" xmlns="http://www.w3.org/2000/svg">
<path d="M217 102.119C217 158.386 168.423 204 108.5 204C48.5771 204 0 158.386 0 102.119C0 45.852 48.5771 0.238464 108.5 0.238464C168.423 0.238464 217 45.852 217 102.119Z" fill="#FEFEFE" fill-opacity="0.87"/>
<path d="M100.522 82.642H97.3312H94.14H87.7577H81.3753H74.993L68.6106 82.8651L65.4194 83.0881L60.4125 83.8137L55.8459 85.6385L50.1616 86.8558L46.2724 88.635L43.0812 91.6314L39.89 94.6279L38.7432 97.6244H37.5964V95.4707L36.6988 93.5043L35.1032 93.1297L35.6019 95.4707L34.0063 94.862L31.4135 95.4707L29.7181 98.0926V99.9654L32.2112 101.752H34.0063L36.6988 100.621L35.6019 104.367V108.206L36.6988 112.607L37.5964 116.353L41.7848 123.095L43.0812 124.593L44.7765 127.589V130.211L44.3541 134.519L44.2779 138.077L44.7765 142.572L46.8707 147.067L49.4635 148.565L52.6547 151.561V154.558L44.7765 153.996L39.89 150.157L37.5964 147.909L36.6988 139.575V133.582L35.6019 129.088L34.6046 123.095L33.5077 124.593L30.3165 130.586L28.7209 136.579V142.572V147.909L30.3165 151.561L33.5077 153.996L35.1032 157.554H33.5077H30.3165H27.1253L23.4552 156.051L22.3385 152.545V150.157L19.646 147.067L20.743 139.575L21.441 130.586L20.743 124.593V121.596L22.3385 117.102L25.9647 109.157L26.0897 101.752L24.5724 94.6279L24.4328 87.9795L23.9341 85.6385V83.672L22.4383 84.2339V86.8558V92.7551L21.441 105.865L20.743 109.61V115.603L19.5738 118.348L19.646 120.098L19.0253 121.596L18.4046 123.095L17.5518 124.593L14.3606 127.589V124.593L13.2636 123.095L13.5628 120.098L12.765 118.6V115.603L14.3606 112.607L17.5518 109.61L18.4046 108.206V106.614L19.0253 99.9654V93.5043V87.9795L18.4046 83.672L17.9782 80.1605L19.0253 72.5288L19.5738 67.6595L21.441 64.663L24.5724 61.6665L28.7209 60.1683L33.5077 58.67H47.868H52.6547L57.4415 60.1683L68.6106 61.1983L78.1841 60.1683L90.0513 59.4191H100.522L112.39 61.1983L119.669 61.6665H122.861L129.243 60.1683L135.625 59.4191L145.199 59.8312L149.986 61.1983L154.772 61.6665L160.357 60.5428L162.75 59.4191L157.964 55.6735V52.677H164.346L169.332 55.6735V54.1753L170.03 51.9279L171.975 50.8042L177.111 46.684L178.507 45.1858L178.706 42.1893L180.302 46.684L177.111 51.1788V52.677L178.706 51.1788H181.897H185.089L187.482 47.4332L188.28 45.1858V49.6805L186.684 52.677L185.089 54.1753L186.684 55.6735L189.875 58.67L191.471 60.1683L193.066 64.663L196.258 67.6595L199.449 70.656L202.64 73.6525L206.948 75.6751L207.427 78.1472L205.831 82.642L204.236 84.1402L201.044 86.9494H198.352L196.258 85.6385H193.066H189.875L180.302 88.635L173.919 91.6314L170.728 94.6279L169.631 99.1227L167.671 106.134L164.346 109.61L162.75 112.607L161.155 118.6L158.761 122.345L156.368 124.593H154.772L152.08 126.466L149.986 127.589L148.39 130.586V133.582V139.575V145.568L151.581 148.565L154.772 151.561V153.06L153.177 154.558H151.581H148.39H146.794L145.199 153.06L144.401 150.812L142.008 148.565L141.559 147.816L141.11 147.067V143.696V139.575V137.047L138.816 130.586V126.466H137.221L135.625 130.586L134.03 135.081L132.434 139.575V142.572V145.568V148.565L135.625 151.561L138.019 155.307L137.221 157.554H135.625H132.434H129.243L126.052 154.558V151.561L124.456 148.565V147.067L126.052 142.572V139.575V138.077L125.254 135.081L125.78 132.12L129.243 129.088L132.434 127.589L134.03 126.091L135.625 125.342H138.816H141.559H144.401L146.794 123.75L149.986 122.345H151.581H153.177L153.975 121.971L154.772 118.6V115.603H153.177H151.581L148.39 112.607L146.794 111.109L146.396 109.985L145.997 105.584L151.581 103.617L151.98 102.494L153.576 99.4972L154.174 98.5608L153.177 94.1597L149.986 96.3135L148.39 97.6244L149.986 95.4707V93.2233L149.288 92.6615L148.39 94.6279L142.008 97.6244L141.559 95.4707L140.013 94.1597L135.625 91.6314L129.243 88.635L123.958 86.5733L119.669 85.6385L114.883 84.6437L110.096 83.6489L100.522 82.642Z" fill="black"/>
<path d="M35.6019 98.0926L34.0063 96.8753L32.0118 97.6244V99.1227L32.6101 99.9654H33.8567H34.48L35.6019 98.0926Z" fill="black"/>
<path d="M54.5495 116.353L52.6547 115.603V112.607L57.4415 113.777L60.134 115.276L63.8238 117.804L66.7158 119.021H70.2062H75.3919L81.3753 118.6H84.5665H87.7577H90.9488H94.14H97.3312V117.102L98.9268 114.105L99.7246 113.356L100.522 111.109L103.714 108.112L106.905 106.614H110.096L113.287 108.112V109.61L116.478 112.607H113.287H111.691L109.647 114.105L109.872 115.603L110.096 117.102V118.6V121.596V124.593V127.589L108.463 132.12L106.905 133.582L103.714 136.579L100.522 139.575L98.9268 141.074L97.3312 143.321V144.07V145.568L96.7328 147.628V148.752L97.0819 150.625L98.0621 152.371L99.2758 153.715L100.522 154.558H103.714H106.905L105.459 155.494L102.916 156.29L102.193 156.232L101.66 156.29L102.592 156.864L103.714 157.554H101.47H100.522L99.0265 156.524L98.3284 156.29H96.2342L94.14 156.524L95.1373 155.588L96.2342 155.073V153.996V153.013L95.586 151.561L94.14 150.625L92.1106 149.315L90.9488 147.067V145.568H87.7577H84.5665L83.1703 147.628L82.4224 152.17V153.715L84.5665 154.558H87.7577L88.8048 155.073L86.1621 155.916L87.7577 157.554H86.1621H84.5665L83.1703 156.29L81.0263 155.916L79.4805 155.588H77.4861L79.4805 153.996L80.3781 150.625V147.909L80.3083 145.77L79.7398 144.8L74.993 142.572H73.3974L71.8018 141.074V139.575H70.2062H68.6106V136.579L67.9209 136.408L66.7158 135.315V134.519V132.12L65.4194 130.586H63.8238L61.4449 129.433V128.807L60.134 127.589V126.232V124.265L59.0371 124.593L57.5918 123.387L59.0371 121.596V118.6H57.4415L55.1977 117.476L54.5495 116.353Z" fill="black"/>
<path d="M167.537 106.614L167.671 106.134M167.671 106.134L169.631 99.1227L170.728 94.6279L173.919 91.6314L180.302 88.635L189.875 85.6385H193.066H196.258L198.352 86.9494H201.044L204.236 84.1402L205.831 82.642L207.427 78.1472L206.948 75.6751L202.64 73.6525L199.449 70.656L196.258 67.6595L193.066 64.663L191.471 60.1683L189.875 58.67L186.684 55.6735L185.089 54.1753L186.684 52.677L188.28 49.6805V45.1858L187.482 47.4332L185.089 51.1788H181.897H178.706L177.111 52.677V51.1788L180.302 46.684L178.706 42.1893L178.507 45.1858L177.111 46.684L171.975 50.8042L170.03 51.9279L169.332 54.1753V55.6735L164.346 52.677H157.964V55.6735L162.75 59.4191L160.357 60.5428L154.772 61.6665L149.986 61.1983L145.199 59.8312L135.625 59.4191L129.243 60.1683L122.861 61.6665H119.669L112.39 61.1983L100.522 59.4191H90.0513L78.1841 60.1683L68.6106 61.1983L57.4415 60.1683L52.6547 58.67H47.868H33.5077L28.7209 60.1683L24.5724 61.6665L21.441 64.663L19.5738 67.6595L19.0253 72.5288L17.9782 80.1605L18.4046 83.672L19.0253 87.9795V93.5043V99.9654L18.4046 106.614V108.206L17.5518 109.61L14.3606 112.607L12.765 115.603V118.6L13.5628 120.098L13.2636 123.095L14.3606 124.593V127.589L17.5518 124.593L18.4046 123.095L19.0253 121.596L19.646 120.098L19.5738 118.348L20.743 115.603V109.61L21.441 105.865L22.4383 92.7551V86.8558V84.2339L23.9341 83.672V85.6385L24.4328 87.9795L24.5724 94.6279L26.0897 101.752L25.9647 109.157L22.3385 117.102L20.743 121.596V124.593L21.441 130.586L20.743 139.575L19.646 147.067L22.3385 150.157V152.545L23.4552 156.051L27.1253 157.554H30.3165H33.5077H35.1032M167.671 106.134L164.346 109.61L162.75 112.607L161.155 118.6L158.761 122.345L156.368 124.593H154.772L152.08 126.466L149.986 127.589L148.39 130.586V133.582V139.575V145.568L151.581 148.565L154.772 151.561V153.06L153.177 154.558H151.581H148.39H146.794L145.199 153.06L144.401 150.812L142.008 148.565L141.559 147.816L141.11 147.067V143.696V139.575V137.047L138.816 130.586V126.466H137.221L135.625 130.586L134.03 135.081L132.434 139.575V142.572V145.568V148.565L135.625 151.561L138.019 155.307L137.221 157.554H135.625H132.434H129.243L126.052 154.558V151.561L124.456 148.565V147.067L126.052 142.572V139.575V138.077L125.254 135.081L125.78 132.12L129.243 129.088L132.434 127.589L134.03 126.091L135.625 125.342H138.816H141.559H144.401L146.794 123.75L149.986 122.345H151.581H153.177L153.975 121.971L154.772 118.6V115.603H153.177H151.581L148.39 112.607L146.794 111.109L146.396 109.985L145.997 105.584L151.581 103.617L151.98 102.494L153.576 99.4972L154.174 98.5608L153.177 94.1597L149.986 96.3135L148.39 97.6244L149.986 95.4707V93.2233L149.288 92.6615L148.39 94.6279L142.008 97.6244L141.559 95.4707L140.013 94.1597L135.625 91.6314L129.243 88.635L123.958 86.5733L119.669 85.6385L114.883 84.6437L110.096 83.6489L100.522 82.642H97.3312H94.14H87.7577H81.3753H74.993L68.6106 82.865L65.4194 83.0881L60.4125 83.8137L55.8459 85.6385L50.1616 86.8558L46.2724 88.635L43.0812 91.6314L39.89 94.6279L38.7432 97.6244H37.5964V95.4707L36.6988 93.5043L35.1032 93.1297L35.6019 95.4707L34.0063 94.862L31.4135 95.4707L29.7181 98.0926V99.9654L32.2112 101.752H34.0063L36.6988 100.621L35.6019 104.367V108.206L36.6988 112.607L37.5964 116.353L41.7848 123.095L43.0812 124.593L44.7765 127.589V130.211L44.3541 134.519L44.2779 138.077M44.2779 138.077L44.3541 138.364M44.2779 138.077L44.7765 142.572L46.8707 147.067L49.4635 148.565L52.6547 151.561V154.558L44.7765 153.996L39.89 150.157L37.5964 147.909L36.6988 139.575V133.582L35.6019 129.088L34.6046 123.095L33.5077 124.593L30.3165 130.586L28.7209 136.579V142.572V147.909L30.3165 151.561L33.5077 153.996L35.1032 157.554M35.1032 157.554L33.5077 154.558M63.8238 130.586H65.4194L66.7158 132.12V134.519V135.315L67.9209 136.408L68.6106 136.579V139.575H70.2062H71.8018V141.074L73.3974 142.572H74.993L79.7398 144.8L80.3083 145.77L80.3781 147.909V150.625L79.4805 153.996L77.4861 155.588H79.4805L81.0263 155.916L83.1703 156.29L84.5665 157.554H86.1621H87.7577L86.1621 155.916L88.8048 155.073L87.7577 154.558H84.5665L82.4224 153.715V152.17L83.1703 147.628L84.5665 145.568H87.7577H90.9488V147.067L92.1106 149.315L94.14 150.625L95.586 151.561L96.2342 153.013V153.996V155.073L95.1373 155.588L94.14 156.524L96.2342 156.29H98.3284L99.0265 156.524L100.522 157.554H101.47H103.714L102.592 156.864L101.66 156.29L102.193 156.232L102.916 156.29L105.459 155.494L106.905 154.558H103.714H100.522L99.2758 153.715L98.0621 152.371L97.0819 150.625L96.7328 148.752V147.628L97.3312 145.568V144.07V143.321L98.9268 141.074L100.522 139.575L103.714 136.579L106.905 133.582L108.463 132.12L110.096 127.589V124.593V121.596V118.6V117.102L109.872 115.603L109.647 114.105L111.691 112.607H113.287H116.478L113.287 109.61V108.112L110.096 106.614H106.905L103.714 108.112L100.522 111.109L99.7246 113.356L98.9268 114.105L97.3312 117.102V118.6H94.14H90.9488H87.7577H84.5665H81.3753L75.3919 119.021H70.2062H66.7158L63.8238 117.804L60.134 115.276L57.4415 113.777L52.6547 112.607V115.603L54.5495 116.353L55.1977 117.476L57.4415 118.6H59.0371V121.596L57.5918 123.387L59.0371 124.593L60.134 124.265V126.232V127.589L61.4449 128.807V129.433L63.8238 130.586ZM63.8238 130.586L62.5274 130.211M34.0063 96.8753L35.6019 98.0926L34.48 99.9654H33.8567H32.6101L32.0118 99.1227V97.6244L34.0063 96.8753Z" stroke="black" stroke-width="0.2"/>
</svg>
