<svg width="458" height="190" viewBox="0 0 458 190" fill="none" xmlns="http://www.w3.org/2000/svg">
<path d="M206.846 67.1103H199.36H191.875H176.904H161.934H146.963L131.993 67.4749L124.507 67.8395L112.763 69.0252L102.051 72.0074L88.7183 73.9968L79.5956 76.9044L72.1103 81.8015L64.625 86.6985L61.935 91.5956H59.2449V88.0758L57.1397 84.8621L53.3971 84.25L54.5666 88.0758L50.824 87.0811L44.7422 88.0758L40.7656 92.3608V95.4214L46.6135 98.3408H50.824L57.1397 96.4927L54.5666 102.614V108.888L57.1397 116.081L59.2449 122.202L69.0694 133.221L72.1103 135.669L76.0869 140.566V144.851L75.0962 151.891L74.9173 157.706L76.0869 165.051L80.9991 172.397L87.0809 174.846L94.5662 179.743V184.64L76.0869 183.722L64.625 177.447L59.2449 173.774L57.1397 160.154V150.36L54.5666 143.015L52.2275 133.221L49.6544 135.669L42.1691 145.463L38.4265 155.257V165.051V173.774L42.1691 179.743L49.6544 183.722L53.3971 189.537H49.6544H42.1691H34.6838L26.0751 187.079L23.4559 181.35V177.447L17.1402 172.397L19.7132 160.154L21.3506 145.463L19.7132 135.669V130.772L23.4559 123.426L31.9615 110.442L32.2547 98.3408L28.6956 86.6985L28.3681 75.8332L27.1985 72.0074V68.7937L23.6898 69.7119V73.9968V83.6379L21.3506 105.062L19.7132 111.184V120.978L16.9708 125.463L17.1402 128.324L15.6842 130.772L14.2283 133.221L12.2279 135.669L4.74265 140.566V135.669L2.16958 133.221L2.87132 128.324L1 125.875V120.978L4.74265 116.081L12.2279 111.184L14.2283 108.888V106.287L15.6842 95.4214V84.8621V75.8332L14.2283 68.7937L13.2281 63.0549L15.6842 50.5827L16.9708 42.625L21.3506 37.7279L28.6956 32.8309L38.4265 30.3824L49.6544 27.9338H83.3382H94.5662L105.794 30.3824L131.993 32.0657L154.449 30.3824L182.284 29.1581H206.846L234.682 32.0657L251.757 32.8309H259.243L274.213 30.3824L289.184 29.1581L311.64 29.8314L322.868 32.0657L334.096 32.8309L347.195 30.9945L352.809 29.1581L341.581 23.0368V18.1397H356.551L368.247 23.0368V20.5882L369.885 16.9154L374.446 15.079L386.493 8.34559L389.767 5.89706L390.235 1L393.978 8.34559L386.493 15.6912V18.1397L390.235 15.6912H397.721H405.206L410.82 9.56985L412.691 5.89706V13.2426L408.949 18.1397L405.206 20.5882L408.949 23.0368L416.434 27.9338L420.176 30.3824L423.919 37.7279L431.404 42.625L438.89 47.5221L446.375 52.4191L456.48 55.7246L457.603 59.7647L453.86 67.1103L450.118 69.5588L442.632 74.1498H436.317L431.404 72.0074H423.919H416.434L393.978 76.9044L379.007 81.8015L371.522 86.6985L368.949 94.0441L364.351 105.503L356.551 111.184L352.809 116.081L349.066 125.875L343.452 131.996L337.838 135.669H334.096L327.78 138.73L322.868 140.566L319.125 145.463V150.36V160.154V169.949L326.61 174.846L334.096 179.743V182.191L330.353 184.64H326.61H319.125H315.382L311.64 182.191L309.768 178.518L304.154 174.846L303.102 173.621L302.049 172.397V166.888V160.154V156.023L296.669 145.463V138.73H292.926L289.184 145.463L285.441 152.809L281.699 160.154V165.051V169.949V174.846L289.184 179.743L294.798 185.864L292.926 189.537H289.184H281.699H274.213L266.728 184.64V179.743L262.985 174.846V172.397L266.728 165.051V160.154V157.706L264.857 152.809L266.089 147.97L274.213 143.015L281.699 140.566L285.441 138.118L289.184 136.893H296.669H303.102H309.768L315.382 134.292L322.868 131.996H326.61H330.353L332.224 131.384L334.096 125.875V120.978H330.353H326.61L319.125 116.081L315.382 113.632L314.447 111.796L313.511 104.603L326.61 101.39L327.546 99.5533L331.289 94.6562L332.692 93.1259L330.353 85.9334L322.868 89.4531L319.125 91.5956L322.868 88.0758V84.403L321.23 83.4848L319.125 86.6985L304.154 91.5956L303.102 88.0758L299.476 85.9334L289.184 81.8015L274.213 76.9044L261.817 73.5351L251.757 72.0074L240.529 70.3817L229.301 68.7559L206.846 67.1103Z" fill="black"/>
<path d="M54.5666 92.3608L50.824 90.3713L46.1457 91.5956V94.0441L47.5492 95.4214H50.4731H51.9351L54.5666 92.3608Z" fill="black"/>
<path d="M99.0106 122.202L94.5662 120.978V116.081L105.794 117.994L112.11 120.442L120.765 124.574L127.548 126.564H135.735H147.899L161.934 125.875H169.419H176.904H184.39H191.875H199.36V123.426L203.103 118.529L204.974 117.305L206.846 113.632L214.331 108.735L221.816 106.287H229.301L236.787 108.735V111.184L244.272 116.081H236.787H233.044L228.249 118.529L228.775 120.978L229.301 123.426V125.875V130.772V135.669V140.566L225.47 147.97L221.816 150.36L214.331 155.257L206.846 160.154L203.103 162.603L199.36 166.276V167.5V169.949L197.957 173.315V175.152L198.775 178.212L201.075 181.066L203.922 183.262L206.846 184.64H214.331H221.816L218.424 186.17L212.46 187.471L210.764 187.375L209.514 187.471L211.699 188.408L214.331 189.537H209.068H206.846L203.337 187.853L201.699 187.471H196.787L191.875 187.853L194.214 186.323L196.787 185.481V183.722V182.115L195.267 179.743L191.875 178.212L187.115 176.071L184.39 172.397V169.949H176.904H169.419L166.144 173.315L164.39 180.737V183.262L169.419 184.64H176.904L179.361 185.481L173.162 186.859L176.904 189.537H173.162H169.419L166.144 187.471L161.115 186.859L157.489 186.323H152.811L157.489 183.722L159.595 178.212V173.774L159.431 170.278L158.098 168.694L146.963 165.051H143.221L139.478 162.603V160.154H135.735H131.993V155.257L130.375 154.979L127.548 153.191V151.891V147.97L124.507 145.463H120.765L115.185 143.579V142.556L112.11 140.566V138.347V135.133L109.537 135.669L106.147 133.698L109.537 130.772V125.875H105.794L100.531 124.039L99.0106 122.202Z" fill="black"/>
<path d="M199.261 166.233L199.29 166.204L203.033 162.531L203.04 162.524L203.048 162.52L225.394 147.899L229.201 140.543V123.434L228.151 118.551L228.135 118.476L228.203 118.44L232.999 115.992L233.021 115.98H243.936L236.732 111.268L236.687 111.238V108.807L229.285 106.387H221.833L214.376 108.825L206.922 113.701L205.063 117.351L205.052 117.374L203.172 118.603L199.46 123.46V125.975H161.938L147.903 126.663L147.898 126.664H127.534L127.521 126.659L120.736 124.67L120.729 124.668L120.722 124.664L112.069 120.533L105.769 118.091L94.666 116.199V120.901L99.0371 122.105L99.0674 122.114L99.0879 122.139L100.591 123.953L105.813 125.775H109.637V130.817L109.603 130.848L106.317 133.682L109.553 135.563L112.09 135.035L112.21 135.011V140.512L115.239 142.472L115.284 142.501V143.507L120.782 145.363H124.543L124.571 145.386L127.612 147.893L127.648 147.923V153.136L130.41 154.883L132.01 155.159L132.093 155.173V160.055H139.578V162.549L143.25 164.951H146.979L146.994 164.956L158.129 168.599L158.155 168.607L158.174 168.629L159.508 170.213L159.529 170.239L159.531 170.272L159.694 173.77V178.23L159.688 178.248L157.583 183.757L157.57 183.791L157.538 183.809L153.196 186.223H157.497L157.504 186.225L161.13 186.76L166.156 187.371L166.179 187.374L166.197 187.387L169.448 189.437H176.593L173.104 186.94L172.922 186.81L173.14 186.761L178.991 185.46L176.887 184.739H169.405L169.393 184.736L164.363 183.358L164.29 183.339V180.726L164.293 180.715L166.047 173.292L166.054 173.266L166.072 173.245L169.348 169.879L169.377 169.849H184.489V172.363L187.18 175.99L191.916 178.121L195.308 179.651L195.335 179.664L196.871 182.061L196.888 182.085V185.554L196.818 185.576L194.259 186.413L192.256 187.723L196.779 187.371L196.787 187.37L201.711 187.371L201.723 187.373L203.359 187.756L203.37 187.759L203.38 187.764L206.868 189.437H213.843L209.475 187.562L209.506 187.371L210.756 187.275L210.77 187.274L212.45 187.37L218.393 186.074L221.354 184.739H206.823L206.803 184.73L203.879 183.353L203.869 183.349L203.86 183.342L201.014 181.145L201.004 181.138L200.997 181.128L198.697 178.275L198.685 178.259L198.679 178.238L197.86 175.178L197.856 175.165V173.295L197.864 173.276L199.261 169.926V166.233ZM50.8711 90.2832L54.7236 92.3311L54.6426 92.4258L52.0107 95.4863L51.9814 95.5215H47.5088L47.4795 95.4932L46.0752 94.1152L46.0459 94.0859V91.5186L46.1201 91.499L50.7988 90.2744L50.8369 90.2646L50.8711 90.2832ZM46.2461 91.6719V94.002L47.5898 95.3213H51.8896L54.4092 92.3906L50.8105 90.4775L46.2461 91.6719ZM23.5898 69.6348L23.6641 69.6152L27.1729 68.6973L27.2988 68.6641V71.9941L28.4639 75.8037L28.4678 75.8164V75.8301L28.7949 86.6836L32.3506 98.3115L32.3555 98.3271L32.3545 98.3428L32.0615 110.445L32.0605 110.474L32.0449 110.497L23.543 123.475L19.8135 130.796V135.663L21.4492 145.446L21.4512 145.461L21.4502 145.475L19.8125 160.165L19.8115 160.175L17.25 172.357L23.5186 177.369L23.5557 177.399V181.326L26.1465 186.995L34.6973 189.437H53.1943L49.5752 184.7L49.7334 184.579L51.9707 187.506L49.584 183.797L42.1221 179.831L42.0986 179.818L42.084 179.796L38.3418 173.827L38.3262 173.803V155.239L38.333 155.222L42.0762 145.428L42.0811 145.414L42.0898 145.402L49.5752 135.608L49.5801 135.603L49.5859 135.597L52.2842 133.028L52.3252 133.197L54.6621 142.986L57.2344 150.327L57.2393 150.344V160.144L59.3369 173.715L64.6807 177.363L76.1152 183.623L94.4658 184.534V179.796L87.0322 174.934L80.9619 172.49L80.9326 172.479L80.916 172.453L76.0039 165.107L75.9912 165.089L75.9883 165.067L74.8184 157.722L74.8174 157.712V157.703L74.9961 151.888V151.877L75.9873 144.844V140.602L72.0361 135.738L69.0068 133.299L69 133.293L68.9951 133.287L59.1699 122.269L59.1572 122.254L59.1504 122.234L57.0449 116.113L54.4727 108.922L54.4668 108.905V102.594L56.9658 96.6475L50.8525 98.4365L50.8379 98.4404H46.5898L46.5684 98.4307L40.666 95.4834V92.3213L40.6924 92.293L44.6689 88.0078L44.6924 87.9824L44.7256 87.9775L50.8076 86.9824L50.8291 86.9785L50.8496 86.9844L54.418 87.9326L53.3018 84.2793L53.2539 84.125L53.4131 84.1514L57.1562 84.7637L57.1992 84.7705L57.2236 84.8076L59.3281 88.0215L59.3447 88.0459V91.4951H61.877L64.5371 86.6504L64.5498 86.6289L64.5703 86.6152L79.541 76.8203L79.5518 76.8135L79.5654 76.8096L88.6875 73.9014L88.7031 73.8975L102.032 71.9082L112.736 68.9287L112.744 68.9268L112.753 68.9258L124.497 67.7402L124.503 67.7393L131.987 67.375H131.99L146.961 67.0107H206.853L229.309 68.6562H229.315L251.771 71.9082L261.832 73.4365L261.843 73.4375L274.239 76.8076L274.244 76.8096L289.215 81.7061L289.221 81.708L299.514 85.8408L299.521 85.8438L299.527 85.8477L303.152 87.9893L303.187 88.0098L303.197 88.0469L304.22 91.4688L319.06 86.6143L321.146 83.4297L321.197 83.3516L322.917 84.3154L322.968 84.3447V88.1191L322.937 88.1484L319.81 91.0879L322.825 89.3623L330.311 85.8428L330.413 85.7949L330.448 85.9023L332.787 93.0947L332.806 93.1504L332.766 93.1934L331.368 94.7168L327.63 99.6064L326.699 101.436L326.679 101.476L326.634 101.487L313.621 104.679L314.543 111.766L315.459 113.562L326.64 120.878H334.195V125.892L334.19 125.907L332.319 131.416L332.303 131.464L330.384 132.092L330.369 132.097H322.881L315.418 134.385L309.811 136.984L309.79 136.993H289.2L285.483 138.209L281.753 140.649L281.742 140.657L281.729 140.661L274.256 143.105L266.176 148.033L264.961 152.802L266.821 157.67L266.828 157.688V165.075L266.817 165.097L263.085 172.421V174.812L266.808 179.682L266.828 179.709V184.585L274.242 189.437H292.865L294.677 185.881L289.118 179.818L281.644 174.93L281.599 174.899V160.131L281.609 160.109L289.095 145.418L289.097 145.415L292.839 138.682L292.867 138.63H296.77V145.44L302.139 155.978L302.149 155.998V172.36L304.221 174.77L309.823 178.435L309.846 178.449L309.857 178.473L311.716 182.121L315.414 184.54H330.321L333.995 182.137V179.796L319.07 170.032L319.025 170.003V145.43L319.046 145.402L322.788 140.506L322.806 140.482L322.833 140.473L327.741 138.637L334.052 135.579L334.072 135.569H337.807L343.387 131.92L348.979 125.821L352.716 116.045L352.721 116.031L352.729 116.021L356.472 111.123L356.48 111.111L356.492 111.103L364.27 105.438L368.854 94.0107L371.428 86.665L371.438 86.6338L371.468 86.6152L378.952 81.7178L378.964 81.7109L378.977 81.7061L393.947 76.8096L393.956 76.8066L416.412 71.9092L416.423 71.9072H431.425L431.444 71.916L436.336 74.0498H442.604L450.065 69.4736L453.783 67.04L457.496 59.7529L456.397 55.8018L446.344 52.5146L446.331 52.5098L446.32 52.5029L423.864 37.8115L423.842 37.7969L423.83 37.7734L420.098 30.4502L405.151 20.6719L405.023 20.5879L405.151 20.5049L408.88 18.0635L412.591 13.208V6.31348L410.909 9.61523L410.902 9.62695L410.894 9.6377L405.279 15.7588L405.25 15.791H390.265L386.548 18.2236L386.393 18.3242V15.6494L386.423 15.6201L393.855 8.3252L390.302 1.35059L389.867 5.90625L389.862 5.9502L389.827 5.97754L386.553 8.42578L386.542 8.43359L386.541 8.43262L374.495 15.166L374.483 15.1729L369.959 16.9922L368.348 20.6084V23.1875L368.209 23.1289L356.529 18.2393H341.681V22.9766L352.856 29.0703L353.06 29.1807L352.84 29.2529L347.226 31.0898L347.218 31.0928L347.209 31.0938L334.109 32.9297L334.1 32.9316L334.089 32.9307L322.861 32.165H322.848L311.628 29.9307L289.188 29.2578L274.225 30.4814L259.259 32.9297L259.251 32.9307H251.753L234.677 32.166L234.671 32.165L206.835 29.2578H182.289L154.455 30.4814L154.456 30.4824L132 32.165L131.986 32.166L105.788 30.4824L105.772 30.4805L94.5586 28.0342H49.6621L38.4482 30.4805L38.4473 30.4795L28.7363 32.9229L21.415 37.8047L17.0645 42.6689L15.7832 50.5986L15.7822 50.6025L13.3291 63.0566L14.3262 68.7734L15.7822 75.8125L15.7842 75.8232V95.4346L14.3281 106.292V108.926L14.3037 108.954L12.3037 111.25L12.2939 111.26L12.2822 111.268L4.81055 116.156L1.09961 121.012V125.841L2.97656 128.296L2.9707 128.338L2.27539 133.184L4.81152 135.597L4.84277 135.626V140.38L12.1602 135.593L14.1465 133.162L17.0381 128.3L16.8711 125.47L16.8691 125.438L16.8857 125.411L19.6133 120.949V111.171L19.6162 111.158L21.251 105.045L23.5898 83.6377V69.6348ZM229.401 140.591L229.391 140.612L225.56 148.016L225.547 148.039L225.525 148.054L203.168 162.679L199.46 166.317V169.969L199.452 169.987L198.057 173.334V175.137L198.866 178.165L201.144 180.992L203.972 183.176L206.87 184.54H221.816L221.857 184.73L218.466 186.261L218.456 186.266L218.445 186.268L212.48 187.568L212.468 187.571L212.454 187.57L210.766 187.475L209.927 187.539L214.37 189.445L214.331 189.637H206.823L206.803 189.627L203.306 187.949L201.689 187.571H196.787L191.883 187.953L191.82 187.77L194.159 186.239L194.171 186.232L194.183 186.229L196.688 185.408V182.145L195.198 179.821L187.074 176.162L187.05 176.151L187.034 176.131L184.31 172.457L184.29 172.43V170.049H169.462L166.234 173.365L164.49 180.748V183.186L169.435 184.54H176.921L176.937 184.545L179.729 185.502L173.401 186.907L176.963 189.455L177.216 189.637H169.391L169.366 189.621L166.109 187.567L161.104 186.958H161.101L157.481 186.423H152.426L157.409 183.65L159.495 178.191V173.779L159.332 170.315L158.04 168.78L146.947 165.151H143.19L143.166 165.135L139.423 162.687L139.378 162.657V160.255H131.893V155.341L130.358 155.077L130.338 155.074L130.321 155.063L127.495 153.276L127.448 153.246V148.017L124.472 145.563H120.755L120.745 145.562L117.704 144.949L117.724 144.852L117.743 144.753L119.243 145.055L115.152 143.674L115.085 143.65V142.61L112.056 140.65L112.01 140.62V135.256L109.558 135.767L109.52 135.774L109.486 135.756L106.097 133.784L105.975 133.714L109.437 130.727V125.975H105.777L105.761 125.97L100.498 124.133L100.472 124.124L100.454 124.103L98.9541 122.29L94.4658 121.054V115.963L94.583 115.982L105.811 117.896L105.821 117.896L105.83 117.9L112.146 120.349L112.153 120.352L120.799 124.479L127.562 126.464H147.894L161.929 125.775L161.934 125.774L199.261 125.775V123.393L199.281 123.366L203.023 118.469L203.034 118.455L203.048 118.445L204.896 117.236L206.757 113.587L206.769 113.563L206.791 113.549L214.276 108.651L214.287 108.645L214.3 108.641L221.785 106.191L221.8 106.187H229.317L229.333 106.191L236.817 108.641L236.887 108.663V111.13L244.607 116.181H233.068L228.362 118.583L229.399 123.405L229.401 123.416V140.591ZM23.79 83.6484L21.4502 105.073L21.4492 105.081L21.4473 105.088L19.8135 111.195V121.006L19.7988 121.03L17.0713 125.488L17.2402 128.317L17.2422 128.349L17.2266 128.375L14.3145 133.271L14.3105 133.278L14.3057 133.284L12.3057 135.732L12.2959 135.744L12.2822 135.753L4.64258 140.751V135.711L2.10059 133.293L2.06348 133.258L2.07031 133.206L2.76562 128.35L0.920898 125.936L0.900391 125.909V120.944L0.920898 120.917L4.66309 116.021L4.67383 116.007L4.6875 115.997L12.1602 111.108L14.1279 108.851V106.273L15.584 95.415V75.8438L14.1309 68.8135L14.1299 68.8105L13.1299 63.0723L13.126 63.0537L13.1299 63.0352L15.5859 50.5635L16.8721 42.6094L16.877 42.5801L16.8965 42.5586L21.2764 37.6611L21.2842 37.6514L21.2949 37.6445L28.6543 32.7383L28.6709 32.7344L38.4023 30.2852L38.4053 30.2842L49.6328 27.8359L49.6436 27.834H94.5771L94.5879 27.8359L105.809 30.2822L131.991 31.9648L154.441 30.2822H154.444L182.28 29.0586L182.284 29.0576H206.856L234.692 31.9658L251.758 32.7305H259.238L274.197 30.2832L274.205 30.2822L289.176 29.0586L289.187 29.0576L311.643 29.7314H311.651L311.659 29.7334L322.878 31.9658L334.088 32.7305L347.172 30.8965L352.557 29.1348L341.533 23.125L341.48 23.0957V18.04H356.571L356.59 18.0479L368.147 22.8857V20.5674L368.156 20.5479L369.793 16.875L369.81 16.8379L369.848 16.8223L374.408 14.9863L386.438 8.25977L389.672 5.84375L390.136 0.990234L390.168 0.648438L394.067 8.2998L394.101 8.36523L386.593 15.7324V17.9541L390.181 15.6074L390.205 15.5908H405.162L410.736 9.51172L412.603 5.85156L412.791 5.89746V13.2764L412.771 13.3037L409.028 18.2002L409.018 18.2139L409.003 18.2236L405.388 20.5879L420.231 30.2988L420.254 30.3135L420.266 30.3369L423.995 37.6582L446.42 52.3281L456.511 55.6299L456.562 55.6465L456.576 55.6982L457.699 59.7383L457.71 59.7754L457.692 59.8105L453.949 67.1553L453.938 67.1797L453.915 67.1943L450.173 69.6426L450.17 69.6445L442.685 74.2354L442.66 74.25H436.296L436.276 74.2412L431.385 72.1074H416.446L394.001 77.001L379.051 81.8916L371.604 86.7637L369.043 94.0771L369.042 94.0811L364.13 106.324L363.944 106.25L364.129 105.788L356.621 111.256L352.896 116.131L349.159 125.911L349.152 125.929L349.14 125.942L343.526 132.063L343.518 132.073L343.507 132.08L337.893 135.753L337.868 135.77H334.117L327.823 138.819L327.815 138.824L327.814 138.823L322.93 140.649L319.225 145.497V169.895L334.15 179.659L334.195 179.688V182.245L334.15 182.274L330.407 184.724L330.383 184.739H315.353L315.327 184.724L311.585 182.274L311.562 182.261L311.551 182.236L309.692 178.588L304.1 174.93L304.088 174.922L304.078 174.911L301.974 172.462L301.949 172.435V156.047L296.58 145.509L296.569 145.487V138.83H292.985L289.271 145.512L289.271 145.511L281.799 160.179V174.791L289.238 179.659L289.249 179.666L289.258 179.675L294.871 185.797L294.918 185.848L294.887 185.909L293.016 189.582L292.987 189.637H274.184L266.673 184.724L266.628 184.693V179.776L262.906 174.906L262.886 174.88V172.373L262.896 172.352L266.628 165.026V157.723L264.764 152.845L264.752 152.814L264.76 152.784L265.992 147.945L266.003 147.905L266.037 147.885L274.161 142.93L274.171 142.923L274.183 142.92L281.655 140.474L285.387 138.034L285.397 138.026L285.41 138.022L289.152 136.799L289.168 136.793H309.748L315.34 134.201L315.353 134.195L315.383 134.292L315.354 134.196L322.838 131.9L322.853 131.896H330.337L332.146 131.304L333.995 125.859V121.078H326.58L326.556 121.062L315.327 113.716L315.306 113.701L315.293 113.678L314.357 111.842L314.35 111.826L314.348 111.809L313.412 104.616L313.4 104.527L313.487 104.506L326.542 101.304L327.457 99.5078L327.461 99.5L327.467 99.4922L331.209 94.5957L331.215 94.5889L332.578 93.1016L330.292 86.0713L322.91 89.5439L319.175 91.6826L319.057 91.5225L322.768 88.0322V84.4609L321.262 83.6172L319.209 86.7529L319.189 86.7822L319.156 86.7939L304.186 91.6904L304.088 91.7227L304.059 91.624L303.017 88.1416L299.432 86.0234L289.146 81.8945L274.187 77L261.791 73.6318L251.742 72.1064L229.294 68.8555L206.838 67.21H146.966L131.996 67.5742L131.997 67.5752L124.513 67.9395L124.512 67.9385L112.777 69.124L102.078 72.1035L102.066 72.1074L88.7393 74.0947L79.6377 76.9951L64.7012 86.7676L62.0225 91.6436L61.9941 91.6953H59.1445V88.1055L57.0791 84.9531L53.54 84.374L54.6621 88.0469L54.7148 88.2188L54.541 88.1729L50.8184 87.1826L44.791 88.1689L40.8652 92.3994V95.3584L46.6387 98.2412H50.8096L57.1113 96.3965L57.3135 96.3379L57.2314 96.5312L54.667 102.633V108.87L57.2334 116.047L57.2344 116.049L59.333 122.151L69.1357 133.146L72.1729 135.591L72.1816 135.598L72.1875 135.606L76.1641 140.503L76.1865 140.53V144.865L75.1953 151.897L75.0176 157.688L75.1895 158.139L75.0957 158.174L75.0928 158.175L76.1816 165.014L81.0645 172.315L87.1182 174.753L87.127 174.757L87.1357 174.762L94.6211 179.659L94.666 179.688V184.745L94.5615 184.739L76.082 183.821L76.0586 183.82L76.0391 183.81L64.5771 177.535L64.5684 177.53L59.1885 173.857L59.1523 173.832L59.1465 173.79L57.041 160.17L57.04 160.162V150.379L54.4727 143.048L54.4688 143.038L52.1699 133.413L49.7266 135.738L42.2568 145.514L38.5264 155.274V173.746L42.2393 179.667L49.7012 183.633L49.7246 183.646L49.7383 183.667L53.4814 189.482L53.5801 189.637H34.6699L26.0479 187.176L26.0029 187.163L25.9844 187.121L23.3652 181.391L23.3555 181.371V177.494L17.0293 172.437L17.042 172.377L19.6152 160.134L21.249 145.465L19.6143 135.686L19.6133 135.678V130.748L19.624 130.727L23.3672 123.381L23.3721 123.371L31.8613 110.411L32.1533 98.3525L28.5996 86.7275L28.5957 86.7148V86.7012L28.2686 75.8506L27.1025 72.0361L27.0986 72.0225V68.9229L23.79 69.7881V83.6484Z" fill="black"/>
</svg>
